%TF.GenerationSoftware,KiCad,Pcbnew,9.0.5*%
%TF.CreationDate,2025-10-16T02:52:29+02:00*%
%TF.ProjectId,Gameboy-interface-card,47616d65-626f-4792-9d69-6e7465726661,rev?*%
%TF.SameCoordinates,Original*%
%TF.FileFunction,Legend,Bot*%
%TF.FilePolarity,Positive*%
%FSLAX46Y46*%
G04 Gerber Fmt 4.6, Leading zero omitted, Abs format (unit mm)*
G04 Created by KiCad (PCBNEW 9.0.5) date 2025-10-16 02:52:29*
%MOMM*%
%LPD*%
G01*
G04 APERTURE LIST*
%ADD10C,0.100000*%
%ADD11C,0.150000*%
%ADD12C,0.120000*%
G04 APERTURE END LIST*
D10*
X58316390Y-146079245D02*
X58268771Y-145936388D01*
X58268771Y-145936388D02*
X58221152Y-145888769D01*
X58221152Y-145888769D02*
X58125914Y-145841150D01*
X58125914Y-145841150D02*
X57983057Y-145841150D01*
X57983057Y-145841150D02*
X57887819Y-145888769D01*
X57887819Y-145888769D02*
X57840200Y-145936388D01*
X57840200Y-145936388D02*
X57792580Y-146031626D01*
X57792580Y-146031626D02*
X57792580Y-146412578D01*
X57792580Y-146412578D02*
X58792580Y-146412578D01*
X58792580Y-146412578D02*
X58792580Y-146079245D01*
X58792580Y-146079245D02*
X58744961Y-145984007D01*
X58744961Y-145984007D02*
X58697342Y-145936388D01*
X58697342Y-145936388D02*
X58602104Y-145888769D01*
X58602104Y-145888769D02*
X58506866Y-145888769D01*
X58506866Y-145888769D02*
X58411628Y-145936388D01*
X58411628Y-145936388D02*
X58364009Y-145984007D01*
X58364009Y-145984007D02*
X58316390Y-146079245D01*
X58316390Y-146079245D02*
X58316390Y-146412578D01*
X57792580Y-144984007D02*
X58316390Y-144984007D01*
X58316390Y-144984007D02*
X58411628Y-145031626D01*
X58411628Y-145031626D02*
X58459247Y-145126864D01*
X58459247Y-145126864D02*
X58459247Y-145317340D01*
X58459247Y-145317340D02*
X58411628Y-145412578D01*
X57840200Y-144984007D02*
X57792580Y-145079245D01*
X57792580Y-145079245D02*
X57792580Y-145317340D01*
X57792580Y-145317340D02*
X57840200Y-145412578D01*
X57840200Y-145412578D02*
X57935438Y-145460197D01*
X57935438Y-145460197D02*
X58030676Y-145460197D01*
X58030676Y-145460197D02*
X58125914Y-145412578D01*
X58125914Y-145412578D02*
X58173533Y-145317340D01*
X58173533Y-145317340D02*
X58173533Y-145079245D01*
X58173533Y-145079245D02*
X58221152Y-144984007D01*
X58459247Y-144650673D02*
X58459247Y-144269721D01*
X58792580Y-144507816D02*
X57935438Y-144507816D01*
X57935438Y-144507816D02*
X57840200Y-144460197D01*
X57840200Y-144460197D02*
X57792580Y-144364959D01*
X57792580Y-144364959D02*
X57792580Y-144269721D01*
X58459247Y-144079244D02*
X58459247Y-143698292D01*
X58792580Y-143936387D02*
X57935438Y-143936387D01*
X57935438Y-143936387D02*
X57840200Y-143888768D01*
X57840200Y-143888768D02*
X57792580Y-143793530D01*
X57792580Y-143793530D02*
X57792580Y-143698292D01*
X57840200Y-142984006D02*
X57792580Y-143079244D01*
X57792580Y-143079244D02*
X57792580Y-143269720D01*
X57792580Y-143269720D02*
X57840200Y-143364958D01*
X57840200Y-143364958D02*
X57935438Y-143412577D01*
X57935438Y-143412577D02*
X58316390Y-143412577D01*
X58316390Y-143412577D02*
X58411628Y-143364958D01*
X58411628Y-143364958D02*
X58459247Y-143269720D01*
X58459247Y-143269720D02*
X58459247Y-143079244D01*
X58459247Y-143079244D02*
X58411628Y-142984006D01*
X58411628Y-142984006D02*
X58316390Y-142936387D01*
X58316390Y-142936387D02*
X58221152Y-142936387D01*
X58221152Y-142936387D02*
X58125914Y-143412577D01*
X57792580Y-142507815D02*
X58459247Y-142507815D01*
X58268771Y-142507815D02*
X58364009Y-142460196D01*
X58364009Y-142460196D02*
X58411628Y-142412577D01*
X58411628Y-142412577D02*
X58459247Y-142317339D01*
X58459247Y-142317339D02*
X58459247Y-142222101D01*
X58459247Y-141984005D02*
X57792580Y-141745910D01*
X58459247Y-141507815D02*
X57792580Y-141745910D01*
X57792580Y-141745910D02*
X57554485Y-141841148D01*
X57554485Y-141841148D02*
X57506866Y-141888767D01*
X57506866Y-141888767D02*
X57459247Y-141984005D01*
X60719925Y-139872419D02*
X61196115Y-139872419D01*
X61196115Y-139872419D02*
X61243734Y-140348609D01*
X61243734Y-140348609D02*
X61196115Y-140300990D01*
X61196115Y-140300990D02*
X61100877Y-140253371D01*
X61100877Y-140253371D02*
X60862782Y-140253371D01*
X60862782Y-140253371D02*
X60767544Y-140300990D01*
X60767544Y-140300990D02*
X60719925Y-140348609D01*
X60719925Y-140348609D02*
X60672306Y-140443847D01*
X60672306Y-140443847D02*
X60672306Y-140681942D01*
X60672306Y-140681942D02*
X60719925Y-140777180D01*
X60719925Y-140777180D02*
X60767544Y-140824800D01*
X60767544Y-140824800D02*
X60862782Y-140872419D01*
X60862782Y-140872419D02*
X61100877Y-140872419D01*
X61100877Y-140872419D02*
X61196115Y-140824800D01*
X61196115Y-140824800D02*
X61243734Y-140777180D01*
X60386591Y-139872419D02*
X60053258Y-140872419D01*
X60053258Y-140872419D02*
X59719925Y-139872419D01*
X60719925Y-101122419D02*
X61196115Y-101122419D01*
X61196115Y-101122419D02*
X61243734Y-101598609D01*
X61243734Y-101598609D02*
X61196115Y-101550990D01*
X61196115Y-101550990D02*
X61100877Y-101503371D01*
X61100877Y-101503371D02*
X60862782Y-101503371D01*
X60862782Y-101503371D02*
X60767544Y-101550990D01*
X60767544Y-101550990D02*
X60719925Y-101598609D01*
X60719925Y-101598609D02*
X60672306Y-101693847D01*
X60672306Y-101693847D02*
X60672306Y-101931942D01*
X60672306Y-101931942D02*
X60719925Y-102027180D01*
X60719925Y-102027180D02*
X60767544Y-102074800D01*
X60767544Y-102074800D02*
X60862782Y-102122419D01*
X60862782Y-102122419D02*
X61100877Y-102122419D01*
X61100877Y-102122419D02*
X61196115Y-102074800D01*
X61196115Y-102074800D02*
X61243734Y-102027180D01*
X60386591Y-101122419D02*
X60053258Y-102122419D01*
X60053258Y-102122419D02*
X59719925Y-101122419D01*
X61422306Y-146920038D02*
X61517544Y-146872419D01*
X61517544Y-146872419D02*
X61660401Y-146872419D01*
X61660401Y-146872419D02*
X61803258Y-146920038D01*
X61803258Y-146920038D02*
X61898496Y-147015276D01*
X61898496Y-147015276D02*
X61946115Y-147110514D01*
X61946115Y-147110514D02*
X61993734Y-147300990D01*
X61993734Y-147300990D02*
X61993734Y-147443847D01*
X61993734Y-147443847D02*
X61946115Y-147634323D01*
X61946115Y-147634323D02*
X61898496Y-147729561D01*
X61898496Y-147729561D02*
X61803258Y-147824800D01*
X61803258Y-147824800D02*
X61660401Y-147872419D01*
X61660401Y-147872419D02*
X61565163Y-147872419D01*
X61565163Y-147872419D02*
X61422306Y-147824800D01*
X61422306Y-147824800D02*
X61374687Y-147777180D01*
X61374687Y-147777180D02*
X61374687Y-147443847D01*
X61374687Y-147443847D02*
X61565163Y-147443847D01*
X60946115Y-147872419D02*
X60946115Y-146872419D01*
X60946115Y-146872419D02*
X60374687Y-147872419D01*
X60374687Y-147872419D02*
X60374687Y-146872419D01*
X59898496Y-147872419D02*
X59898496Y-146872419D01*
X59898496Y-146872419D02*
X59660401Y-146872419D01*
X59660401Y-146872419D02*
X59517544Y-146920038D01*
X59517544Y-146920038D02*
X59422306Y-147015276D01*
X59422306Y-147015276D02*
X59374687Y-147110514D01*
X59374687Y-147110514D02*
X59327068Y-147300990D01*
X59327068Y-147300990D02*
X59327068Y-147443847D01*
X59327068Y-147443847D02*
X59374687Y-147634323D01*
X59374687Y-147634323D02*
X59422306Y-147729561D01*
X59422306Y-147729561D02*
X59517544Y-147824800D01*
X59517544Y-147824800D02*
X59660401Y-147872419D01*
X59660401Y-147872419D02*
X59898496Y-147872419D01*
X61672306Y-108920038D02*
X61767544Y-108872419D01*
X61767544Y-108872419D02*
X61910401Y-108872419D01*
X61910401Y-108872419D02*
X62053258Y-108920038D01*
X62053258Y-108920038D02*
X62148496Y-109015276D01*
X62148496Y-109015276D02*
X62196115Y-109110514D01*
X62196115Y-109110514D02*
X62243734Y-109300990D01*
X62243734Y-109300990D02*
X62243734Y-109443847D01*
X62243734Y-109443847D02*
X62196115Y-109634323D01*
X62196115Y-109634323D02*
X62148496Y-109729561D01*
X62148496Y-109729561D02*
X62053258Y-109824800D01*
X62053258Y-109824800D02*
X61910401Y-109872419D01*
X61910401Y-109872419D02*
X61815163Y-109872419D01*
X61815163Y-109872419D02*
X61672306Y-109824800D01*
X61672306Y-109824800D02*
X61624687Y-109777180D01*
X61624687Y-109777180D02*
X61624687Y-109443847D01*
X61624687Y-109443847D02*
X61815163Y-109443847D01*
X61196115Y-109872419D02*
X61196115Y-108872419D01*
X61196115Y-108872419D02*
X60624687Y-109872419D01*
X60624687Y-109872419D02*
X60624687Y-108872419D01*
X60148496Y-109872419D02*
X60148496Y-108872419D01*
X60148496Y-108872419D02*
X59910401Y-108872419D01*
X59910401Y-108872419D02*
X59767544Y-108920038D01*
X59767544Y-108920038D02*
X59672306Y-109015276D01*
X59672306Y-109015276D02*
X59624687Y-109110514D01*
X59624687Y-109110514D02*
X59577068Y-109300990D01*
X59577068Y-109300990D02*
X59577068Y-109443847D01*
X59577068Y-109443847D02*
X59624687Y-109634323D01*
X59624687Y-109634323D02*
X59672306Y-109729561D01*
X59672306Y-109729561D02*
X59767544Y-109824800D01*
X59767544Y-109824800D02*
X59910401Y-109872419D01*
X59910401Y-109872419D02*
X60148496Y-109872419D01*
D11*
X76300057Y-78523809D02*
X76252438Y-78571428D01*
X76252438Y-78571428D02*
X76204819Y-78666666D01*
X76204819Y-78666666D02*
X76204819Y-78904761D01*
X76204819Y-78904761D02*
X76252438Y-78999999D01*
X76252438Y-78999999D02*
X76300057Y-79047618D01*
X76300057Y-79047618D02*
X76395295Y-79095237D01*
X76395295Y-79095237D02*
X76490533Y-79095237D01*
X76490533Y-79095237D02*
X76633390Y-79047618D01*
X76633390Y-79047618D02*
X77204819Y-78476190D01*
X77204819Y-78476190D02*
X77204819Y-79095237D01*
X76204819Y-79428571D02*
X76204819Y-80095237D01*
X76204819Y-80095237D02*
X77204819Y-79666666D01*
X76204819Y-80666666D02*
X76204819Y-80761904D01*
X76204819Y-80761904D02*
X76252438Y-80857142D01*
X76252438Y-80857142D02*
X76300057Y-80904761D01*
X76300057Y-80904761D02*
X76395295Y-80952380D01*
X76395295Y-80952380D02*
X76585771Y-80999999D01*
X76585771Y-80999999D02*
X76823866Y-80999999D01*
X76823866Y-80999999D02*
X77014342Y-80952380D01*
X77014342Y-80952380D02*
X77109580Y-80904761D01*
X77109580Y-80904761D02*
X77157200Y-80857142D01*
X77157200Y-80857142D02*
X77204819Y-80761904D01*
X77204819Y-80761904D02*
X77204819Y-80666666D01*
X77204819Y-80666666D02*
X77157200Y-80571428D01*
X77157200Y-80571428D02*
X77109580Y-80523809D01*
X77109580Y-80523809D02*
X77014342Y-80476190D01*
X77014342Y-80476190D02*
X76823866Y-80428571D01*
X76823866Y-80428571D02*
X76585771Y-80428571D01*
X76585771Y-80428571D02*
X76395295Y-80476190D01*
X76395295Y-80476190D02*
X76300057Y-80523809D01*
X76300057Y-80523809D02*
X76252438Y-80571428D01*
X76252438Y-80571428D02*
X76204819Y-80666666D01*
X77538152Y-81714285D02*
X77538152Y-81476190D01*
X77538152Y-81476190D02*
X76109580Y-81476190D01*
X76109580Y-81476190D02*
X76109580Y-81714285D01*
X77204819Y-82047619D02*
X77204819Y-82285714D01*
X77204819Y-82285714D02*
X77014342Y-82285714D01*
X77014342Y-82285714D02*
X76966723Y-82190476D01*
X76966723Y-82190476D02*
X76871485Y-82095238D01*
X76871485Y-82095238D02*
X76728628Y-82047619D01*
X76728628Y-82047619D02*
X76490533Y-82047619D01*
X76490533Y-82047619D02*
X76347676Y-82095238D01*
X76347676Y-82095238D02*
X76252438Y-82190476D01*
X76252438Y-82190476D02*
X76204819Y-82333333D01*
X76204819Y-82333333D02*
X76204819Y-82523809D01*
X76204819Y-82523809D02*
X76252438Y-82666666D01*
X76252438Y-82666666D02*
X76347676Y-82761904D01*
X76347676Y-82761904D02*
X76490533Y-82809523D01*
X76490533Y-82809523D02*
X76728628Y-82809523D01*
X76728628Y-82809523D02*
X76871485Y-82761904D01*
X76871485Y-82761904D02*
X76966723Y-82666666D01*
X76966723Y-82666666D02*
X77014342Y-82571428D01*
X77014342Y-82571428D02*
X77204819Y-82571428D01*
X77204819Y-82571428D02*
X77204819Y-82809523D01*
X77538152Y-83142857D02*
X77538152Y-83380952D01*
X77538152Y-83380952D02*
X76109580Y-83380952D01*
X76109580Y-83380952D02*
X76109580Y-83142857D01*
X84383390Y-79666666D02*
X84335771Y-79571428D01*
X84335771Y-79571428D02*
X84288152Y-79523809D01*
X84288152Y-79523809D02*
X84192914Y-79476190D01*
X84192914Y-79476190D02*
X84145295Y-79476190D01*
X84145295Y-79476190D02*
X84050057Y-79523809D01*
X84050057Y-79523809D02*
X84002438Y-79571428D01*
X84002438Y-79571428D02*
X83954819Y-79666666D01*
X83954819Y-79666666D02*
X83954819Y-79857142D01*
X83954819Y-79857142D02*
X84002438Y-79952380D01*
X84002438Y-79952380D02*
X84050057Y-79999999D01*
X84050057Y-79999999D02*
X84145295Y-80047618D01*
X84145295Y-80047618D02*
X84192914Y-80047618D01*
X84192914Y-80047618D02*
X84288152Y-79999999D01*
X84288152Y-79999999D02*
X84335771Y-79952380D01*
X84335771Y-79952380D02*
X84383390Y-79857142D01*
X84383390Y-79857142D02*
X84383390Y-79666666D01*
X84383390Y-79666666D02*
X84431009Y-79571428D01*
X84431009Y-79571428D02*
X84478628Y-79523809D01*
X84478628Y-79523809D02*
X84573866Y-79476190D01*
X84573866Y-79476190D02*
X84764342Y-79476190D01*
X84764342Y-79476190D02*
X84859580Y-79523809D01*
X84859580Y-79523809D02*
X84907200Y-79571428D01*
X84907200Y-79571428D02*
X84954819Y-79666666D01*
X84954819Y-79666666D02*
X84954819Y-79857142D01*
X84954819Y-79857142D02*
X84907200Y-79952380D01*
X84907200Y-79952380D02*
X84859580Y-79999999D01*
X84859580Y-79999999D02*
X84764342Y-80047618D01*
X84764342Y-80047618D02*
X84573866Y-80047618D01*
X84573866Y-80047618D02*
X84478628Y-79999999D01*
X84478628Y-79999999D02*
X84431009Y-79952380D01*
X84431009Y-79952380D02*
X84383390Y-79857142D01*
X85288152Y-80761904D02*
X85288152Y-80523809D01*
X85288152Y-80523809D02*
X83859580Y-80523809D01*
X83859580Y-80523809D02*
X83859580Y-80761904D01*
X84954819Y-81095238D02*
X84954819Y-81333333D01*
X84954819Y-81333333D02*
X84764342Y-81333333D01*
X84764342Y-81333333D02*
X84716723Y-81238095D01*
X84716723Y-81238095D02*
X84621485Y-81142857D01*
X84621485Y-81142857D02*
X84478628Y-81095238D01*
X84478628Y-81095238D02*
X84240533Y-81095238D01*
X84240533Y-81095238D02*
X84097676Y-81142857D01*
X84097676Y-81142857D02*
X84002438Y-81238095D01*
X84002438Y-81238095D02*
X83954819Y-81380952D01*
X83954819Y-81380952D02*
X83954819Y-81571428D01*
X83954819Y-81571428D02*
X84002438Y-81714285D01*
X84002438Y-81714285D02*
X84097676Y-81809523D01*
X84097676Y-81809523D02*
X84240533Y-81857142D01*
X84240533Y-81857142D02*
X84478628Y-81857142D01*
X84478628Y-81857142D02*
X84621485Y-81809523D01*
X84621485Y-81809523D02*
X84716723Y-81714285D01*
X84716723Y-81714285D02*
X84764342Y-81619047D01*
X84764342Y-81619047D02*
X84954819Y-81619047D01*
X84954819Y-81619047D02*
X84954819Y-81857142D01*
X85288152Y-82190476D02*
X85288152Y-82428571D01*
X85288152Y-82428571D02*
X83859580Y-82428571D01*
X83859580Y-82428571D02*
X83859580Y-82190476D01*
X120702381Y-118954819D02*
X121273809Y-118954819D01*
X120988095Y-118954819D02*
X120988095Y-117954819D01*
X120988095Y-117954819D02*
X121083333Y-118097676D01*
X121083333Y-118097676D02*
X121178571Y-118192914D01*
X121178571Y-118192914D02*
X121273809Y-118240533D01*
X119988095Y-119288152D02*
X120226190Y-119288152D01*
X120226190Y-119288152D02*
X120226190Y-117859580D01*
X120226190Y-117859580D02*
X119988095Y-117859580D01*
X119607142Y-118954819D02*
X119607142Y-117954819D01*
X119035714Y-118954819D02*
X119464285Y-118383390D01*
X119035714Y-117954819D02*
X119607142Y-118526247D01*
X118654761Y-118954819D02*
X118416666Y-118954819D01*
X118416666Y-118954819D02*
X118416666Y-118764342D01*
X118416666Y-118764342D02*
X118511904Y-118716723D01*
X118511904Y-118716723D02*
X118607142Y-118621485D01*
X118607142Y-118621485D02*
X118654761Y-118478628D01*
X118654761Y-118478628D02*
X118654761Y-118240533D01*
X118654761Y-118240533D02*
X118607142Y-118097676D01*
X118607142Y-118097676D02*
X118511904Y-118002438D01*
X118511904Y-118002438D02*
X118369047Y-117954819D01*
X118369047Y-117954819D02*
X118178571Y-117954819D01*
X118178571Y-117954819D02*
X118035714Y-118002438D01*
X118035714Y-118002438D02*
X117940476Y-118097676D01*
X117940476Y-118097676D02*
X117892857Y-118240533D01*
X117892857Y-118240533D02*
X117892857Y-118478628D01*
X117892857Y-118478628D02*
X117940476Y-118621485D01*
X117940476Y-118621485D02*
X118035714Y-118716723D01*
X118035714Y-118716723D02*
X118130952Y-118764342D01*
X118130952Y-118764342D02*
X118130952Y-118954819D01*
X118130952Y-118954819D02*
X117892857Y-118954819D01*
X117559523Y-119288152D02*
X117321428Y-119288152D01*
X117321428Y-119288152D02*
X117321428Y-117859580D01*
X117321428Y-117859580D02*
X117559523Y-117859580D01*
X120702381Y-112454819D02*
X121273809Y-112454819D01*
X120988095Y-112454819D02*
X120988095Y-111454819D01*
X120988095Y-111454819D02*
X121083333Y-111597676D01*
X121083333Y-111597676D02*
X121178571Y-111692914D01*
X121178571Y-111692914D02*
X121273809Y-111740533D01*
X119988095Y-112788152D02*
X120226190Y-112788152D01*
X120226190Y-112788152D02*
X120226190Y-111359580D01*
X120226190Y-111359580D02*
X119988095Y-111359580D01*
X119607142Y-112454819D02*
X119607142Y-111454819D01*
X119035714Y-112454819D02*
X119464285Y-111883390D01*
X119035714Y-111454819D02*
X119607142Y-112026247D01*
X118654761Y-112454819D02*
X118416666Y-112454819D01*
X118416666Y-112454819D02*
X118416666Y-112264342D01*
X118416666Y-112264342D02*
X118511904Y-112216723D01*
X118511904Y-112216723D02*
X118607142Y-112121485D01*
X118607142Y-112121485D02*
X118654761Y-111978628D01*
X118654761Y-111978628D02*
X118654761Y-111740533D01*
X118654761Y-111740533D02*
X118607142Y-111597676D01*
X118607142Y-111597676D02*
X118511904Y-111502438D01*
X118511904Y-111502438D02*
X118369047Y-111454819D01*
X118369047Y-111454819D02*
X118178571Y-111454819D01*
X118178571Y-111454819D02*
X118035714Y-111502438D01*
X118035714Y-111502438D02*
X117940476Y-111597676D01*
X117940476Y-111597676D02*
X117892857Y-111740533D01*
X117892857Y-111740533D02*
X117892857Y-111978628D01*
X117892857Y-111978628D02*
X117940476Y-112121485D01*
X117940476Y-112121485D02*
X118035714Y-112216723D01*
X118035714Y-112216723D02*
X118130952Y-112264342D01*
X118130952Y-112264342D02*
X118130952Y-112454819D01*
X118130952Y-112454819D02*
X117892857Y-112454819D01*
X117559523Y-112788152D02*
X117321428Y-112788152D01*
X117321428Y-112788152D02*
X117321428Y-111359580D01*
X117321428Y-111359580D02*
X117559523Y-111359580D01*
X76928571Y-110204819D02*
X77499999Y-110204819D01*
X77214285Y-110204819D02*
X77214285Y-109204819D01*
X77214285Y-109204819D02*
X77309523Y-109347676D01*
X77309523Y-109347676D02*
X77404761Y-109442914D01*
X77404761Y-109442914D02*
X77499999Y-109490533D01*
X76309523Y-109204819D02*
X76214285Y-109204819D01*
X76214285Y-109204819D02*
X76119047Y-109252438D01*
X76119047Y-109252438D02*
X76071428Y-109300057D01*
X76071428Y-109300057D02*
X76023809Y-109395295D01*
X76023809Y-109395295D02*
X75976190Y-109585771D01*
X75976190Y-109585771D02*
X75976190Y-109823866D01*
X75976190Y-109823866D02*
X76023809Y-110014342D01*
X76023809Y-110014342D02*
X76071428Y-110109580D01*
X76071428Y-110109580D02*
X76119047Y-110157200D01*
X76119047Y-110157200D02*
X76214285Y-110204819D01*
X76214285Y-110204819D02*
X76309523Y-110204819D01*
X76309523Y-110204819D02*
X76404761Y-110157200D01*
X76404761Y-110157200D02*
X76452380Y-110109580D01*
X76452380Y-110109580D02*
X76499999Y-110014342D01*
X76499999Y-110014342D02*
X76547618Y-109823866D01*
X76547618Y-109823866D02*
X76547618Y-109585771D01*
X76547618Y-109585771D02*
X76499999Y-109395295D01*
X76499999Y-109395295D02*
X76452380Y-109300057D01*
X76452380Y-109300057D02*
X76404761Y-109252438D01*
X76404761Y-109252438D02*
X76309523Y-109204819D01*
X75261904Y-110538152D02*
X75499999Y-110538152D01*
X75499999Y-110538152D02*
X75499999Y-109109580D01*
X75499999Y-109109580D02*
X75261904Y-109109580D01*
X74880951Y-110204819D02*
X74880951Y-109204819D01*
X74309523Y-110204819D02*
X74738094Y-109633390D01*
X74309523Y-109204819D02*
X74880951Y-109776247D01*
X73928570Y-110204819D02*
X73690475Y-110204819D01*
X73690475Y-110204819D02*
X73690475Y-110014342D01*
X73690475Y-110014342D02*
X73785713Y-109966723D01*
X73785713Y-109966723D02*
X73880951Y-109871485D01*
X73880951Y-109871485D02*
X73928570Y-109728628D01*
X73928570Y-109728628D02*
X73928570Y-109490533D01*
X73928570Y-109490533D02*
X73880951Y-109347676D01*
X73880951Y-109347676D02*
X73785713Y-109252438D01*
X73785713Y-109252438D02*
X73642856Y-109204819D01*
X73642856Y-109204819D02*
X73452380Y-109204819D01*
X73452380Y-109204819D02*
X73309523Y-109252438D01*
X73309523Y-109252438D02*
X73214285Y-109347676D01*
X73214285Y-109347676D02*
X73166666Y-109490533D01*
X73166666Y-109490533D02*
X73166666Y-109728628D01*
X73166666Y-109728628D02*
X73214285Y-109871485D01*
X73214285Y-109871485D02*
X73309523Y-109966723D01*
X73309523Y-109966723D02*
X73404761Y-110014342D01*
X73404761Y-110014342D02*
X73404761Y-110204819D01*
X73404761Y-110204819D02*
X73166666Y-110204819D01*
X72833332Y-110538152D02*
X72595237Y-110538152D01*
X72595237Y-110538152D02*
X72595237Y-109109580D01*
X72595237Y-109109580D02*
X72833332Y-109109580D01*
X76928571Y-106204819D02*
X77499999Y-106204819D01*
X77214285Y-106204819D02*
X77214285Y-105204819D01*
X77214285Y-105204819D02*
X77309523Y-105347676D01*
X77309523Y-105347676D02*
X77404761Y-105442914D01*
X77404761Y-105442914D02*
X77499999Y-105490533D01*
X76309523Y-105204819D02*
X76214285Y-105204819D01*
X76214285Y-105204819D02*
X76119047Y-105252438D01*
X76119047Y-105252438D02*
X76071428Y-105300057D01*
X76071428Y-105300057D02*
X76023809Y-105395295D01*
X76023809Y-105395295D02*
X75976190Y-105585771D01*
X75976190Y-105585771D02*
X75976190Y-105823866D01*
X75976190Y-105823866D02*
X76023809Y-106014342D01*
X76023809Y-106014342D02*
X76071428Y-106109580D01*
X76071428Y-106109580D02*
X76119047Y-106157200D01*
X76119047Y-106157200D02*
X76214285Y-106204819D01*
X76214285Y-106204819D02*
X76309523Y-106204819D01*
X76309523Y-106204819D02*
X76404761Y-106157200D01*
X76404761Y-106157200D02*
X76452380Y-106109580D01*
X76452380Y-106109580D02*
X76499999Y-106014342D01*
X76499999Y-106014342D02*
X76547618Y-105823866D01*
X76547618Y-105823866D02*
X76547618Y-105585771D01*
X76547618Y-105585771D02*
X76499999Y-105395295D01*
X76499999Y-105395295D02*
X76452380Y-105300057D01*
X76452380Y-105300057D02*
X76404761Y-105252438D01*
X76404761Y-105252438D02*
X76309523Y-105204819D01*
X75261904Y-106538152D02*
X75499999Y-106538152D01*
X75499999Y-106538152D02*
X75499999Y-105109580D01*
X75499999Y-105109580D02*
X75261904Y-105109580D01*
X74880951Y-106204819D02*
X74880951Y-105204819D01*
X74309523Y-106204819D02*
X74738094Y-105633390D01*
X74309523Y-105204819D02*
X74880951Y-105776247D01*
X73928570Y-106204819D02*
X73690475Y-106204819D01*
X73690475Y-106204819D02*
X73690475Y-106014342D01*
X73690475Y-106014342D02*
X73785713Y-105966723D01*
X73785713Y-105966723D02*
X73880951Y-105871485D01*
X73880951Y-105871485D02*
X73928570Y-105728628D01*
X73928570Y-105728628D02*
X73928570Y-105490533D01*
X73928570Y-105490533D02*
X73880951Y-105347676D01*
X73880951Y-105347676D02*
X73785713Y-105252438D01*
X73785713Y-105252438D02*
X73642856Y-105204819D01*
X73642856Y-105204819D02*
X73452380Y-105204819D01*
X73452380Y-105204819D02*
X73309523Y-105252438D01*
X73309523Y-105252438D02*
X73214285Y-105347676D01*
X73214285Y-105347676D02*
X73166666Y-105490533D01*
X73166666Y-105490533D02*
X73166666Y-105728628D01*
X73166666Y-105728628D02*
X73214285Y-105871485D01*
X73214285Y-105871485D02*
X73309523Y-105966723D01*
X73309523Y-105966723D02*
X73404761Y-106014342D01*
X73404761Y-106014342D02*
X73404761Y-106204819D01*
X73404761Y-106204819D02*
X73166666Y-106204819D01*
X72833332Y-106538152D02*
X72595237Y-106538152D01*
X72595237Y-106538152D02*
X72595237Y-105109580D01*
X72595237Y-105109580D02*
X72833332Y-105109580D01*
X97357142Y-92701009D02*
X97214285Y-92748628D01*
X97214285Y-92748628D02*
X97166666Y-92796247D01*
X97166666Y-92796247D02*
X97119047Y-92891485D01*
X97119047Y-92891485D02*
X97119047Y-93034342D01*
X97119047Y-93034342D02*
X97166666Y-93129580D01*
X97166666Y-93129580D02*
X97214285Y-93177200D01*
X97214285Y-93177200D02*
X97309523Y-93224819D01*
X97309523Y-93224819D02*
X97690475Y-93224819D01*
X97690475Y-93224819D02*
X97690475Y-92224819D01*
X97690475Y-92224819D02*
X97357142Y-92224819D01*
X97357142Y-92224819D02*
X97261904Y-92272438D01*
X97261904Y-92272438D02*
X97214285Y-92320057D01*
X97214285Y-92320057D02*
X97166666Y-92415295D01*
X97166666Y-92415295D02*
X97166666Y-92510533D01*
X97166666Y-92510533D02*
X97214285Y-92605771D01*
X97214285Y-92605771D02*
X97261904Y-92653390D01*
X97261904Y-92653390D02*
X97357142Y-92701009D01*
X97357142Y-92701009D02*
X97690475Y-92701009D01*
X96119047Y-93129580D02*
X96166666Y-93177200D01*
X96166666Y-93177200D02*
X96309523Y-93224819D01*
X96309523Y-93224819D02*
X96404761Y-93224819D01*
X96404761Y-93224819D02*
X96547618Y-93177200D01*
X96547618Y-93177200D02*
X96642856Y-93081961D01*
X96642856Y-93081961D02*
X96690475Y-92986723D01*
X96690475Y-92986723D02*
X96738094Y-92796247D01*
X96738094Y-92796247D02*
X96738094Y-92653390D01*
X96738094Y-92653390D02*
X96690475Y-92462914D01*
X96690475Y-92462914D02*
X96642856Y-92367676D01*
X96642856Y-92367676D02*
X96547618Y-92272438D01*
X96547618Y-92272438D02*
X96404761Y-92224819D01*
X96404761Y-92224819D02*
X96309523Y-92224819D01*
X96309523Y-92224819D02*
X96166666Y-92272438D01*
X96166666Y-92272438D02*
X96119047Y-92320057D01*
X95214285Y-92224819D02*
X95690475Y-92224819D01*
X95690475Y-92224819D02*
X95738094Y-92701009D01*
X95738094Y-92701009D02*
X95690475Y-92653390D01*
X95690475Y-92653390D02*
X95595237Y-92605771D01*
X95595237Y-92605771D02*
X95357142Y-92605771D01*
X95357142Y-92605771D02*
X95261904Y-92653390D01*
X95261904Y-92653390D02*
X95214285Y-92701009D01*
X95214285Y-92701009D02*
X95166666Y-92796247D01*
X95166666Y-92796247D02*
X95166666Y-93034342D01*
X95166666Y-93034342D02*
X95214285Y-93129580D01*
X95214285Y-93129580D02*
X95261904Y-93177200D01*
X95261904Y-93177200D02*
X95357142Y-93224819D01*
X95357142Y-93224819D02*
X95595237Y-93224819D01*
X95595237Y-93224819D02*
X95690475Y-93177200D01*
X95690475Y-93177200D02*
X95738094Y-93129580D01*
X94261904Y-92224819D02*
X94738094Y-92224819D01*
X94738094Y-92224819D02*
X94785713Y-92701009D01*
X94785713Y-92701009D02*
X94738094Y-92653390D01*
X94738094Y-92653390D02*
X94642856Y-92605771D01*
X94642856Y-92605771D02*
X94404761Y-92605771D01*
X94404761Y-92605771D02*
X94309523Y-92653390D01*
X94309523Y-92653390D02*
X94261904Y-92701009D01*
X94261904Y-92701009D02*
X94214285Y-92796247D01*
X94214285Y-92796247D02*
X94214285Y-93034342D01*
X94214285Y-93034342D02*
X94261904Y-93129580D01*
X94261904Y-93129580D02*
X94309523Y-93177200D01*
X94309523Y-93177200D02*
X94404761Y-93224819D01*
X94404761Y-93224819D02*
X94642856Y-93224819D01*
X94642856Y-93224819D02*
X94738094Y-93177200D01*
X94738094Y-93177200D02*
X94785713Y-93129580D01*
X93357142Y-92224819D02*
X93547618Y-92224819D01*
X93547618Y-92224819D02*
X93642856Y-92272438D01*
X93642856Y-92272438D02*
X93690475Y-92320057D01*
X93690475Y-92320057D02*
X93785713Y-92462914D01*
X93785713Y-92462914D02*
X93833332Y-92653390D01*
X93833332Y-92653390D02*
X93833332Y-93034342D01*
X93833332Y-93034342D02*
X93785713Y-93129580D01*
X93785713Y-93129580D02*
X93738094Y-93177200D01*
X93738094Y-93177200D02*
X93642856Y-93224819D01*
X93642856Y-93224819D02*
X93452380Y-93224819D01*
X93452380Y-93224819D02*
X93357142Y-93177200D01*
X93357142Y-93177200D02*
X93309523Y-93129580D01*
X93309523Y-93129580D02*
X93261904Y-93034342D01*
X93261904Y-93034342D02*
X93261904Y-92796247D01*
X93261904Y-92796247D02*
X93309523Y-92701009D01*
X93309523Y-92701009D02*
X93357142Y-92653390D01*
X93357142Y-92653390D02*
X93452380Y-92605771D01*
X93452380Y-92605771D02*
X93642856Y-92605771D01*
X93642856Y-92605771D02*
X93738094Y-92653390D01*
X93738094Y-92653390D02*
X93785713Y-92701009D01*
X93785713Y-92701009D02*
X93833332Y-92796247D01*
X77428571Y-118154819D02*
X77999999Y-118154819D01*
X77714285Y-118154819D02*
X77714285Y-117154819D01*
X77714285Y-117154819D02*
X77809523Y-117297676D01*
X77809523Y-117297676D02*
X77904761Y-117392914D01*
X77904761Y-117392914D02*
X77999999Y-117440533D01*
X76809523Y-117154819D02*
X76714285Y-117154819D01*
X76714285Y-117154819D02*
X76619047Y-117202438D01*
X76619047Y-117202438D02*
X76571428Y-117250057D01*
X76571428Y-117250057D02*
X76523809Y-117345295D01*
X76523809Y-117345295D02*
X76476190Y-117535771D01*
X76476190Y-117535771D02*
X76476190Y-117773866D01*
X76476190Y-117773866D02*
X76523809Y-117964342D01*
X76523809Y-117964342D02*
X76571428Y-118059580D01*
X76571428Y-118059580D02*
X76619047Y-118107200D01*
X76619047Y-118107200D02*
X76714285Y-118154819D01*
X76714285Y-118154819D02*
X76809523Y-118154819D01*
X76809523Y-118154819D02*
X76904761Y-118107200D01*
X76904761Y-118107200D02*
X76952380Y-118059580D01*
X76952380Y-118059580D02*
X76999999Y-117964342D01*
X76999999Y-117964342D02*
X77047618Y-117773866D01*
X77047618Y-117773866D02*
X77047618Y-117535771D01*
X77047618Y-117535771D02*
X76999999Y-117345295D01*
X76999999Y-117345295D02*
X76952380Y-117250057D01*
X76952380Y-117250057D02*
X76904761Y-117202438D01*
X76904761Y-117202438D02*
X76809523Y-117154819D01*
X75761904Y-118488152D02*
X75999999Y-118488152D01*
X75999999Y-118488152D02*
X75999999Y-117059580D01*
X75999999Y-117059580D02*
X75761904Y-117059580D01*
X75380951Y-118154819D02*
X75380951Y-117154819D01*
X74809523Y-118154819D02*
X75238094Y-117583390D01*
X74809523Y-117154819D02*
X75380951Y-117726247D01*
X74428570Y-118154819D02*
X74190475Y-118154819D01*
X74190475Y-118154819D02*
X74190475Y-117964342D01*
X74190475Y-117964342D02*
X74285713Y-117916723D01*
X74285713Y-117916723D02*
X74380951Y-117821485D01*
X74380951Y-117821485D02*
X74428570Y-117678628D01*
X74428570Y-117678628D02*
X74428570Y-117440533D01*
X74428570Y-117440533D02*
X74380951Y-117297676D01*
X74380951Y-117297676D02*
X74285713Y-117202438D01*
X74285713Y-117202438D02*
X74142856Y-117154819D01*
X74142856Y-117154819D02*
X73952380Y-117154819D01*
X73952380Y-117154819D02*
X73809523Y-117202438D01*
X73809523Y-117202438D02*
X73714285Y-117297676D01*
X73714285Y-117297676D02*
X73666666Y-117440533D01*
X73666666Y-117440533D02*
X73666666Y-117678628D01*
X73666666Y-117678628D02*
X73714285Y-117821485D01*
X73714285Y-117821485D02*
X73809523Y-117916723D01*
X73809523Y-117916723D02*
X73904761Y-117964342D01*
X73904761Y-117964342D02*
X73904761Y-118154819D01*
X73904761Y-118154819D02*
X73666666Y-118154819D01*
X73333332Y-118488152D02*
X73095237Y-118488152D01*
X73095237Y-118488152D02*
X73095237Y-117059580D01*
X73095237Y-117059580D02*
X73333332Y-117059580D01*
X75454819Y-132571428D02*
X75454819Y-132000000D01*
X75454819Y-132285714D02*
X74454819Y-132285714D01*
X74454819Y-132285714D02*
X74597676Y-132190476D01*
X74597676Y-132190476D02*
X74692914Y-132095238D01*
X74692914Y-132095238D02*
X74740533Y-132000000D01*
X74454819Y-133190476D02*
X74454819Y-133285714D01*
X74454819Y-133285714D02*
X74502438Y-133380952D01*
X74502438Y-133380952D02*
X74550057Y-133428571D01*
X74550057Y-133428571D02*
X74645295Y-133476190D01*
X74645295Y-133476190D02*
X74835771Y-133523809D01*
X74835771Y-133523809D02*
X75073866Y-133523809D01*
X75073866Y-133523809D02*
X75264342Y-133476190D01*
X75264342Y-133476190D02*
X75359580Y-133428571D01*
X75359580Y-133428571D02*
X75407200Y-133380952D01*
X75407200Y-133380952D02*
X75454819Y-133285714D01*
X75454819Y-133285714D02*
X75454819Y-133190476D01*
X75454819Y-133190476D02*
X75407200Y-133095238D01*
X75407200Y-133095238D02*
X75359580Y-133047619D01*
X75359580Y-133047619D02*
X75264342Y-133000000D01*
X75264342Y-133000000D02*
X75073866Y-132952381D01*
X75073866Y-132952381D02*
X74835771Y-132952381D01*
X74835771Y-132952381D02*
X74645295Y-133000000D01*
X74645295Y-133000000D02*
X74550057Y-133047619D01*
X74550057Y-133047619D02*
X74502438Y-133095238D01*
X74502438Y-133095238D02*
X74454819Y-133190476D01*
X75788152Y-134238095D02*
X75788152Y-134000000D01*
X75788152Y-134000000D02*
X74359580Y-134000000D01*
X74359580Y-134000000D02*
X74359580Y-134238095D01*
X75454819Y-134619048D02*
X74454819Y-134619048D01*
X75454819Y-135190476D02*
X74883390Y-134761905D01*
X74454819Y-135190476D02*
X75026247Y-134619048D01*
X75454819Y-135571429D02*
X75454819Y-135809524D01*
X75454819Y-135809524D02*
X75264342Y-135809524D01*
X75264342Y-135809524D02*
X75216723Y-135714286D01*
X75216723Y-135714286D02*
X75121485Y-135619048D01*
X75121485Y-135619048D02*
X74978628Y-135571429D01*
X74978628Y-135571429D02*
X74740533Y-135571429D01*
X74740533Y-135571429D02*
X74597676Y-135619048D01*
X74597676Y-135619048D02*
X74502438Y-135714286D01*
X74502438Y-135714286D02*
X74454819Y-135857143D01*
X74454819Y-135857143D02*
X74454819Y-136047619D01*
X74454819Y-136047619D02*
X74502438Y-136190476D01*
X74502438Y-136190476D02*
X74597676Y-136285714D01*
X74597676Y-136285714D02*
X74740533Y-136333333D01*
X74740533Y-136333333D02*
X74978628Y-136333333D01*
X74978628Y-136333333D02*
X75121485Y-136285714D01*
X75121485Y-136285714D02*
X75216723Y-136190476D01*
X75216723Y-136190476D02*
X75264342Y-136095238D01*
X75264342Y-136095238D02*
X75454819Y-136095238D01*
X75454819Y-136095238D02*
X75454819Y-136333333D01*
X75788152Y-136666667D02*
X75788152Y-136904762D01*
X75788152Y-136904762D02*
X74359580Y-136904762D01*
X74359580Y-136904762D02*
X74359580Y-136666667D01*
X95204819Y-114071428D02*
X95204819Y-113500000D01*
X95204819Y-113785714D02*
X94204819Y-113785714D01*
X94204819Y-113785714D02*
X94347676Y-113690476D01*
X94347676Y-113690476D02*
X94442914Y-113595238D01*
X94442914Y-113595238D02*
X94490533Y-113500000D01*
X94204819Y-114690476D02*
X94204819Y-114785714D01*
X94204819Y-114785714D02*
X94252438Y-114880952D01*
X94252438Y-114880952D02*
X94300057Y-114928571D01*
X94300057Y-114928571D02*
X94395295Y-114976190D01*
X94395295Y-114976190D02*
X94585771Y-115023809D01*
X94585771Y-115023809D02*
X94823866Y-115023809D01*
X94823866Y-115023809D02*
X95014342Y-114976190D01*
X95014342Y-114976190D02*
X95109580Y-114928571D01*
X95109580Y-114928571D02*
X95157200Y-114880952D01*
X95157200Y-114880952D02*
X95204819Y-114785714D01*
X95204819Y-114785714D02*
X95204819Y-114690476D01*
X95204819Y-114690476D02*
X95157200Y-114595238D01*
X95157200Y-114595238D02*
X95109580Y-114547619D01*
X95109580Y-114547619D02*
X95014342Y-114500000D01*
X95014342Y-114500000D02*
X94823866Y-114452381D01*
X94823866Y-114452381D02*
X94585771Y-114452381D01*
X94585771Y-114452381D02*
X94395295Y-114500000D01*
X94395295Y-114500000D02*
X94300057Y-114547619D01*
X94300057Y-114547619D02*
X94252438Y-114595238D01*
X94252438Y-114595238D02*
X94204819Y-114690476D01*
X95538152Y-115738095D02*
X95538152Y-115500000D01*
X95538152Y-115500000D02*
X94109580Y-115500000D01*
X94109580Y-115500000D02*
X94109580Y-115738095D01*
X95204819Y-116119048D02*
X94204819Y-116119048D01*
X95204819Y-116690476D02*
X94633390Y-116261905D01*
X94204819Y-116690476D02*
X94776247Y-116119048D01*
X95204819Y-117071429D02*
X95204819Y-117309524D01*
X95204819Y-117309524D02*
X95014342Y-117309524D01*
X95014342Y-117309524D02*
X94966723Y-117214286D01*
X94966723Y-117214286D02*
X94871485Y-117119048D01*
X94871485Y-117119048D02*
X94728628Y-117071429D01*
X94728628Y-117071429D02*
X94490533Y-117071429D01*
X94490533Y-117071429D02*
X94347676Y-117119048D01*
X94347676Y-117119048D02*
X94252438Y-117214286D01*
X94252438Y-117214286D02*
X94204819Y-117357143D01*
X94204819Y-117357143D02*
X94204819Y-117547619D01*
X94204819Y-117547619D02*
X94252438Y-117690476D01*
X94252438Y-117690476D02*
X94347676Y-117785714D01*
X94347676Y-117785714D02*
X94490533Y-117833333D01*
X94490533Y-117833333D02*
X94728628Y-117833333D01*
X94728628Y-117833333D02*
X94871485Y-117785714D01*
X94871485Y-117785714D02*
X94966723Y-117690476D01*
X94966723Y-117690476D02*
X95014342Y-117595238D01*
X95014342Y-117595238D02*
X95204819Y-117595238D01*
X95204819Y-117595238D02*
X95204819Y-117833333D01*
X95538152Y-118166667D02*
X95538152Y-118404762D01*
X95538152Y-118404762D02*
X94109580Y-118404762D01*
X94109580Y-118404762D02*
X94109580Y-118166667D01*
X72738095Y-100204819D02*
X73309523Y-100204819D01*
X73023809Y-100204819D02*
X73023809Y-99204819D01*
X73023809Y-99204819D02*
X73119047Y-99347676D01*
X73119047Y-99347676D02*
X73214285Y-99442914D01*
X73214285Y-99442914D02*
X73309523Y-99490533D01*
X72119047Y-99204819D02*
X72023809Y-99204819D01*
X72023809Y-99204819D02*
X71928571Y-99252438D01*
X71928571Y-99252438D02*
X71880952Y-99300057D01*
X71880952Y-99300057D02*
X71833333Y-99395295D01*
X71833333Y-99395295D02*
X71785714Y-99585771D01*
X71785714Y-99585771D02*
X71785714Y-99823866D01*
X71785714Y-99823866D02*
X71833333Y-100014342D01*
X71833333Y-100014342D02*
X71880952Y-100109580D01*
X71880952Y-100109580D02*
X71928571Y-100157200D01*
X71928571Y-100157200D02*
X72023809Y-100204819D01*
X72023809Y-100204819D02*
X72119047Y-100204819D01*
X72119047Y-100204819D02*
X72214285Y-100157200D01*
X72214285Y-100157200D02*
X72261904Y-100109580D01*
X72261904Y-100109580D02*
X72309523Y-100014342D01*
X72309523Y-100014342D02*
X72357142Y-99823866D01*
X72357142Y-99823866D02*
X72357142Y-99585771D01*
X72357142Y-99585771D02*
X72309523Y-99395295D01*
X72309523Y-99395295D02*
X72261904Y-99300057D01*
X72261904Y-99300057D02*
X72214285Y-99252438D01*
X72214285Y-99252438D02*
X72119047Y-99204819D01*
X71071428Y-100538152D02*
X71309523Y-100538152D01*
X71309523Y-100538152D02*
X71309523Y-99109580D01*
X71309523Y-99109580D02*
X71071428Y-99109580D01*
X70261904Y-99538152D02*
X70261904Y-100204819D01*
X70690475Y-99538152D02*
X70690475Y-100061961D01*
X70690475Y-100061961D02*
X70642856Y-100157200D01*
X70642856Y-100157200D02*
X70547618Y-100204819D01*
X70547618Y-100204819D02*
X70404761Y-100204819D01*
X70404761Y-100204819D02*
X70309523Y-100157200D01*
X70309523Y-100157200D02*
X70261904Y-100109580D01*
X69452380Y-99681009D02*
X69785713Y-99681009D01*
X69785713Y-100204819D02*
X69785713Y-99204819D01*
X69785713Y-99204819D02*
X69309523Y-99204819D01*
X69023808Y-100538152D02*
X68785713Y-100538152D01*
X68785713Y-100538152D02*
X68785713Y-99109580D01*
X68785713Y-99109580D02*
X69023808Y-99109580D01*
X76928571Y-114204819D02*
X77499999Y-114204819D01*
X77214285Y-114204819D02*
X77214285Y-113204819D01*
X77214285Y-113204819D02*
X77309523Y-113347676D01*
X77309523Y-113347676D02*
X77404761Y-113442914D01*
X77404761Y-113442914D02*
X77499999Y-113490533D01*
X76309523Y-113204819D02*
X76214285Y-113204819D01*
X76214285Y-113204819D02*
X76119047Y-113252438D01*
X76119047Y-113252438D02*
X76071428Y-113300057D01*
X76071428Y-113300057D02*
X76023809Y-113395295D01*
X76023809Y-113395295D02*
X75976190Y-113585771D01*
X75976190Y-113585771D02*
X75976190Y-113823866D01*
X75976190Y-113823866D02*
X76023809Y-114014342D01*
X76023809Y-114014342D02*
X76071428Y-114109580D01*
X76071428Y-114109580D02*
X76119047Y-114157200D01*
X76119047Y-114157200D02*
X76214285Y-114204819D01*
X76214285Y-114204819D02*
X76309523Y-114204819D01*
X76309523Y-114204819D02*
X76404761Y-114157200D01*
X76404761Y-114157200D02*
X76452380Y-114109580D01*
X76452380Y-114109580D02*
X76499999Y-114014342D01*
X76499999Y-114014342D02*
X76547618Y-113823866D01*
X76547618Y-113823866D02*
X76547618Y-113585771D01*
X76547618Y-113585771D02*
X76499999Y-113395295D01*
X76499999Y-113395295D02*
X76452380Y-113300057D01*
X76452380Y-113300057D02*
X76404761Y-113252438D01*
X76404761Y-113252438D02*
X76309523Y-113204819D01*
X75261904Y-114538152D02*
X75499999Y-114538152D01*
X75499999Y-114538152D02*
X75499999Y-113109580D01*
X75499999Y-113109580D02*
X75261904Y-113109580D01*
X74880951Y-114204819D02*
X74880951Y-113204819D01*
X74309523Y-114204819D02*
X74738094Y-113633390D01*
X74309523Y-113204819D02*
X74880951Y-113776247D01*
X73928570Y-114204819D02*
X73690475Y-114204819D01*
X73690475Y-114204819D02*
X73690475Y-114014342D01*
X73690475Y-114014342D02*
X73785713Y-113966723D01*
X73785713Y-113966723D02*
X73880951Y-113871485D01*
X73880951Y-113871485D02*
X73928570Y-113728628D01*
X73928570Y-113728628D02*
X73928570Y-113490533D01*
X73928570Y-113490533D02*
X73880951Y-113347676D01*
X73880951Y-113347676D02*
X73785713Y-113252438D01*
X73785713Y-113252438D02*
X73642856Y-113204819D01*
X73642856Y-113204819D02*
X73452380Y-113204819D01*
X73452380Y-113204819D02*
X73309523Y-113252438D01*
X73309523Y-113252438D02*
X73214285Y-113347676D01*
X73214285Y-113347676D02*
X73166666Y-113490533D01*
X73166666Y-113490533D02*
X73166666Y-113728628D01*
X73166666Y-113728628D02*
X73214285Y-113871485D01*
X73214285Y-113871485D02*
X73309523Y-113966723D01*
X73309523Y-113966723D02*
X73404761Y-114014342D01*
X73404761Y-114014342D02*
X73404761Y-114204819D01*
X73404761Y-114204819D02*
X73166666Y-114204819D01*
X72833332Y-114538152D02*
X72595237Y-114538152D01*
X72595237Y-114538152D02*
X72595237Y-113109580D01*
X72595237Y-113109580D02*
X72833332Y-113109580D01*
X80954819Y-79166666D02*
X80954819Y-78595238D01*
X80954819Y-78880952D02*
X79954819Y-78880952D01*
X79954819Y-78880952D02*
X80097676Y-78785714D01*
X80097676Y-78785714D02*
X80192914Y-78690476D01*
X80192914Y-78690476D02*
X80240533Y-78595238D01*
X79954819Y-80071428D02*
X79954819Y-79595238D01*
X79954819Y-79595238D02*
X80431009Y-79547619D01*
X80431009Y-79547619D02*
X80383390Y-79595238D01*
X80383390Y-79595238D02*
X80335771Y-79690476D01*
X80335771Y-79690476D02*
X80335771Y-79928571D01*
X80335771Y-79928571D02*
X80383390Y-80023809D01*
X80383390Y-80023809D02*
X80431009Y-80071428D01*
X80431009Y-80071428D02*
X80526247Y-80119047D01*
X80526247Y-80119047D02*
X80764342Y-80119047D01*
X80764342Y-80119047D02*
X80859580Y-80071428D01*
X80859580Y-80071428D02*
X80907200Y-80023809D01*
X80907200Y-80023809D02*
X80954819Y-79928571D01*
X80954819Y-79928571D02*
X80954819Y-79690476D01*
X80954819Y-79690476D02*
X80907200Y-79595238D01*
X80907200Y-79595238D02*
X80859580Y-79547619D01*
X81288152Y-80833333D02*
X81288152Y-80595238D01*
X81288152Y-80595238D02*
X79859580Y-80595238D01*
X79859580Y-80595238D02*
X79859580Y-80833333D01*
X80954819Y-81214286D02*
X79954819Y-81214286D01*
X80573866Y-81309524D02*
X80954819Y-81595238D01*
X80288152Y-81595238D02*
X80669104Y-81214286D01*
X80954819Y-81976191D02*
X80954819Y-82214286D01*
X80954819Y-82214286D02*
X80764342Y-82214286D01*
X80764342Y-82214286D02*
X80716723Y-82119048D01*
X80716723Y-82119048D02*
X80621485Y-82023810D01*
X80621485Y-82023810D02*
X80478628Y-81976191D01*
X80478628Y-81976191D02*
X80240533Y-81976191D01*
X80240533Y-81976191D02*
X80097676Y-82023810D01*
X80097676Y-82023810D02*
X80002438Y-82119048D01*
X80002438Y-82119048D02*
X79954819Y-82261905D01*
X79954819Y-82261905D02*
X79954819Y-82452381D01*
X79954819Y-82452381D02*
X80002438Y-82595238D01*
X80002438Y-82595238D02*
X80097676Y-82690476D01*
X80097676Y-82690476D02*
X80240533Y-82738095D01*
X80240533Y-82738095D02*
X80478628Y-82738095D01*
X80478628Y-82738095D02*
X80621485Y-82690476D01*
X80621485Y-82690476D02*
X80716723Y-82595238D01*
X80716723Y-82595238D02*
X80764342Y-82500000D01*
X80764342Y-82500000D02*
X80954819Y-82500000D01*
X80954819Y-82500000D02*
X80954819Y-82738095D01*
X81288152Y-83071429D02*
X81288152Y-83309524D01*
X81288152Y-83309524D02*
X79859580Y-83309524D01*
X79859580Y-83309524D02*
X79859580Y-83071429D01*
X79454819Y-132571428D02*
X79454819Y-132000000D01*
X79454819Y-132285714D02*
X78454819Y-132285714D01*
X78454819Y-132285714D02*
X78597676Y-132190476D01*
X78597676Y-132190476D02*
X78692914Y-132095238D01*
X78692914Y-132095238D02*
X78740533Y-132000000D01*
X78454819Y-133190476D02*
X78454819Y-133285714D01*
X78454819Y-133285714D02*
X78502438Y-133380952D01*
X78502438Y-133380952D02*
X78550057Y-133428571D01*
X78550057Y-133428571D02*
X78645295Y-133476190D01*
X78645295Y-133476190D02*
X78835771Y-133523809D01*
X78835771Y-133523809D02*
X79073866Y-133523809D01*
X79073866Y-133523809D02*
X79264342Y-133476190D01*
X79264342Y-133476190D02*
X79359580Y-133428571D01*
X79359580Y-133428571D02*
X79407200Y-133380952D01*
X79407200Y-133380952D02*
X79454819Y-133285714D01*
X79454819Y-133285714D02*
X79454819Y-133190476D01*
X79454819Y-133190476D02*
X79407200Y-133095238D01*
X79407200Y-133095238D02*
X79359580Y-133047619D01*
X79359580Y-133047619D02*
X79264342Y-133000000D01*
X79264342Y-133000000D02*
X79073866Y-132952381D01*
X79073866Y-132952381D02*
X78835771Y-132952381D01*
X78835771Y-132952381D02*
X78645295Y-133000000D01*
X78645295Y-133000000D02*
X78550057Y-133047619D01*
X78550057Y-133047619D02*
X78502438Y-133095238D01*
X78502438Y-133095238D02*
X78454819Y-133190476D01*
X79788152Y-134238095D02*
X79788152Y-134000000D01*
X79788152Y-134000000D02*
X78359580Y-134000000D01*
X78359580Y-134000000D02*
X78359580Y-134238095D01*
X79454819Y-134619048D02*
X78454819Y-134619048D01*
X79454819Y-135190476D02*
X78883390Y-134761905D01*
X78454819Y-135190476D02*
X79026247Y-134619048D01*
X79454819Y-135571429D02*
X79454819Y-135809524D01*
X79454819Y-135809524D02*
X79264342Y-135809524D01*
X79264342Y-135809524D02*
X79216723Y-135714286D01*
X79216723Y-135714286D02*
X79121485Y-135619048D01*
X79121485Y-135619048D02*
X78978628Y-135571429D01*
X78978628Y-135571429D02*
X78740533Y-135571429D01*
X78740533Y-135571429D02*
X78597676Y-135619048D01*
X78597676Y-135619048D02*
X78502438Y-135714286D01*
X78502438Y-135714286D02*
X78454819Y-135857143D01*
X78454819Y-135857143D02*
X78454819Y-136047619D01*
X78454819Y-136047619D02*
X78502438Y-136190476D01*
X78502438Y-136190476D02*
X78597676Y-136285714D01*
X78597676Y-136285714D02*
X78740533Y-136333333D01*
X78740533Y-136333333D02*
X78978628Y-136333333D01*
X78978628Y-136333333D02*
X79121485Y-136285714D01*
X79121485Y-136285714D02*
X79216723Y-136190476D01*
X79216723Y-136190476D02*
X79264342Y-136095238D01*
X79264342Y-136095238D02*
X79454819Y-136095238D01*
X79454819Y-136095238D02*
X79454819Y-136333333D01*
X79788152Y-136666667D02*
X79788152Y-136904762D01*
X79788152Y-136904762D02*
X78359580Y-136904762D01*
X78359580Y-136904762D02*
X78359580Y-136666667D01*
X101454819Y-113571428D02*
X101454819Y-113000000D01*
X101454819Y-113285714D02*
X100454819Y-113285714D01*
X100454819Y-113285714D02*
X100597676Y-113190476D01*
X100597676Y-113190476D02*
X100692914Y-113095238D01*
X100692914Y-113095238D02*
X100740533Y-113000000D01*
X100454819Y-114190476D02*
X100454819Y-114285714D01*
X100454819Y-114285714D02*
X100502438Y-114380952D01*
X100502438Y-114380952D02*
X100550057Y-114428571D01*
X100550057Y-114428571D02*
X100645295Y-114476190D01*
X100645295Y-114476190D02*
X100835771Y-114523809D01*
X100835771Y-114523809D02*
X101073866Y-114523809D01*
X101073866Y-114523809D02*
X101264342Y-114476190D01*
X101264342Y-114476190D02*
X101359580Y-114428571D01*
X101359580Y-114428571D02*
X101407200Y-114380952D01*
X101407200Y-114380952D02*
X101454819Y-114285714D01*
X101454819Y-114285714D02*
X101454819Y-114190476D01*
X101454819Y-114190476D02*
X101407200Y-114095238D01*
X101407200Y-114095238D02*
X101359580Y-114047619D01*
X101359580Y-114047619D02*
X101264342Y-114000000D01*
X101264342Y-114000000D02*
X101073866Y-113952381D01*
X101073866Y-113952381D02*
X100835771Y-113952381D01*
X100835771Y-113952381D02*
X100645295Y-114000000D01*
X100645295Y-114000000D02*
X100550057Y-114047619D01*
X100550057Y-114047619D02*
X100502438Y-114095238D01*
X100502438Y-114095238D02*
X100454819Y-114190476D01*
X101788152Y-115238095D02*
X101788152Y-115000000D01*
X101788152Y-115000000D02*
X100359580Y-115000000D01*
X100359580Y-115000000D02*
X100359580Y-115238095D01*
X101454819Y-115619048D02*
X100454819Y-115619048D01*
X101454819Y-116190476D02*
X100883390Y-115761905D01*
X100454819Y-116190476D02*
X101026247Y-115619048D01*
X101454819Y-116571429D02*
X101454819Y-116809524D01*
X101454819Y-116809524D02*
X101264342Y-116809524D01*
X101264342Y-116809524D02*
X101216723Y-116714286D01*
X101216723Y-116714286D02*
X101121485Y-116619048D01*
X101121485Y-116619048D02*
X100978628Y-116571429D01*
X100978628Y-116571429D02*
X100740533Y-116571429D01*
X100740533Y-116571429D02*
X100597676Y-116619048D01*
X100597676Y-116619048D02*
X100502438Y-116714286D01*
X100502438Y-116714286D02*
X100454819Y-116857143D01*
X100454819Y-116857143D02*
X100454819Y-117047619D01*
X100454819Y-117047619D02*
X100502438Y-117190476D01*
X100502438Y-117190476D02*
X100597676Y-117285714D01*
X100597676Y-117285714D02*
X100740533Y-117333333D01*
X100740533Y-117333333D02*
X100978628Y-117333333D01*
X100978628Y-117333333D02*
X101121485Y-117285714D01*
X101121485Y-117285714D02*
X101216723Y-117190476D01*
X101216723Y-117190476D02*
X101264342Y-117095238D01*
X101264342Y-117095238D02*
X101454819Y-117095238D01*
X101454819Y-117095238D02*
X101454819Y-117333333D01*
X101788152Y-117666667D02*
X101788152Y-117904762D01*
X101788152Y-117904762D02*
X100359580Y-117904762D01*
X100359580Y-117904762D02*
X100359580Y-117666667D01*
D10*
%TO.C,Battery*%
X59498558Y-141507816D02*
X59498558Y-146507816D01*
X59498558Y-146507816D02*
X61998558Y-146507816D01*
X59500000Y-102500000D02*
X59500000Y-107500000D01*
X59500000Y-107500000D02*
X62000000Y-107500000D01*
X61998558Y-141507816D02*
X59498558Y-141507816D01*
X61998558Y-146507816D02*
X61998558Y-141507816D01*
X62000000Y-102500000D02*
X59500000Y-102500000D01*
X62000000Y-107500000D02*
X62000000Y-102500000D01*
D12*
%TO.C,270[\u03A9]*%
X76750000Y-74420000D02*
X76750000Y-77730000D01*
X76750000Y-87580000D02*
X76750000Y-84270000D01*
X75380000Y-77730000D02*
X78120000Y-77730000D01*
X78120000Y-84270000D01*
X75380000Y-84270000D01*
X75380000Y-77730000D01*
%TO.C,8[\u03A9]*%
X84500000Y-74420000D02*
X84500000Y-77730000D01*
X84500000Y-87580000D02*
X84500000Y-84270000D01*
X85870000Y-84270000D02*
X83130000Y-84270000D01*
X83130000Y-77730000D01*
X85870000Y-77730000D01*
X85870000Y-84270000D01*
%TO.C,1[K\u03A9]*%
X119377064Y-115865000D02*
X118922936Y-115865000D01*
X119377064Y-117335000D02*
X118922936Y-117335000D01*
X119377064Y-113365000D02*
X118922936Y-113365000D01*
X119377064Y-114835000D02*
X118922936Y-114835000D01*
%TO.C,10[K\u03A9]*%
X75227064Y-106990000D02*
X74772936Y-106990000D01*
X75227064Y-108460000D02*
X74772936Y-108460000D01*
X75227064Y-103265000D02*
X74772936Y-103265000D01*
X75227064Y-104735000D02*
X74772936Y-104735000D01*
%TO.C,BC556*%
X97870000Y-94720000D02*
X97870000Y-98320000D01*
X93570000Y-95700000D02*
G75*
G02*
X97861741Y-94708125I2450000J-820000D01*
G01*
X97847684Y-98328445D02*
G75*
G02*
X93570000Y-97300000I-1827684J1808445D01*
G01*
%TO.C,10[K\u03A9]*%
X75352064Y-115015000D02*
X74897936Y-115015000D01*
X75352064Y-116485000D02*
X74897936Y-116485000D01*
X72265000Y-134772936D02*
X72265000Y-135227064D01*
X73735000Y-134772936D02*
X73735000Y-135227064D01*
X96015000Y-115272936D02*
X96015000Y-115727064D01*
X97485000Y-115272936D02*
X97485000Y-115727064D01*
%TO.C,10[uF]*%
X68757599Y-97695000D02*
X69157599Y-97695000D01*
X68957599Y-97895000D02*
X68957599Y-97495000D01*
X71027400Y-98580000D02*
X71027400Y-94420000D01*
X71067400Y-98580000D02*
X71067400Y-94420000D01*
X71107400Y-98578000D02*
X71107400Y-94422000D01*
X71147400Y-98577000D02*
X71147400Y-94423000D01*
X71187400Y-98574000D02*
X71187400Y-94426000D01*
X71227400Y-95660000D02*
X71227400Y-94429000D01*
X71227400Y-98571000D02*
X71227400Y-97340000D01*
X71267400Y-95660000D02*
X71267400Y-94434000D01*
X71267400Y-98566000D02*
X71267400Y-97340000D01*
X71307400Y-95660000D02*
X71307400Y-94439000D01*
X71307400Y-98561000D02*
X71307400Y-97340000D01*
X71347400Y-95660000D02*
X71347400Y-94444000D01*
X71347400Y-98556000D02*
X71347400Y-97340000D01*
X71387400Y-95660000D02*
X71387400Y-94451000D01*
X71387400Y-98549000D02*
X71387400Y-97340000D01*
X71427400Y-95660000D02*
X71427400Y-94458000D01*
X71427400Y-98542000D02*
X71427400Y-97340000D01*
X71467400Y-95660000D02*
X71467400Y-94466000D01*
X71467400Y-98534000D02*
X71467400Y-97340000D01*
X71507400Y-95660000D02*
X71507400Y-94475000D01*
X71507400Y-98525000D02*
X71507400Y-97340000D01*
X71547400Y-95660000D02*
X71547400Y-94485000D01*
X71547400Y-98515000D02*
X71547400Y-97340000D01*
X71587400Y-95660000D02*
X71587400Y-94495000D01*
X71587400Y-98505000D02*
X71587400Y-97340000D01*
X71627400Y-95660000D02*
X71627400Y-94507000D01*
X71627400Y-98493000D02*
X71627400Y-97340000D01*
X71667400Y-95660000D02*
X71667400Y-94519000D01*
X71667400Y-98481000D02*
X71667400Y-97340000D01*
X71707400Y-95660000D02*
X71707400Y-94532000D01*
X71707400Y-98468000D02*
X71707400Y-97340000D01*
X71747400Y-95660000D02*
X71747400Y-94546000D01*
X71747400Y-98454000D02*
X71747400Y-97340000D01*
X71787400Y-95660000D02*
X71787400Y-94561000D01*
X71787400Y-98439000D02*
X71787400Y-97340000D01*
X71827400Y-95660000D02*
X71827400Y-94577000D01*
X71827400Y-98423000D02*
X71827400Y-97340000D01*
X71867400Y-95660000D02*
X71867400Y-94594000D01*
X71867400Y-98406000D02*
X71867400Y-97340000D01*
X71907400Y-95660000D02*
X71907400Y-94611000D01*
X71907400Y-98389000D02*
X71907400Y-97340000D01*
X71947400Y-95660000D02*
X71947400Y-94630000D01*
X71947400Y-98370000D02*
X71947400Y-97340000D01*
X71987400Y-95660000D02*
X71987400Y-94650000D01*
X71987400Y-98350000D02*
X71987400Y-97340000D01*
X72027400Y-95660000D02*
X72027400Y-94671000D01*
X72027400Y-98329000D02*
X72027400Y-97340000D01*
X72067400Y-95660000D02*
X72067400Y-94693000D01*
X72067400Y-98307000D02*
X72067400Y-97340000D01*
X72107400Y-95660000D02*
X72107400Y-94716000D01*
X72107400Y-98284000D02*
X72107400Y-97340000D01*
X72147400Y-95660000D02*
X72147400Y-94740000D01*
X72147400Y-98260000D02*
X72147400Y-97340000D01*
X72187400Y-95660000D02*
X72187400Y-94766000D01*
X72187400Y-98234000D02*
X72187400Y-97340000D01*
X72227400Y-95660000D02*
X72227400Y-94792000D01*
X72227400Y-98208000D02*
X72227400Y-97340000D01*
X72267400Y-95660000D02*
X72267400Y-94820000D01*
X72267400Y-98180000D02*
X72267400Y-97340000D01*
X72307400Y-95660000D02*
X72307400Y-94850000D01*
X72307400Y-98150000D02*
X72307400Y-97340000D01*
X72347400Y-95660000D02*
X72347400Y-94881000D01*
X72347400Y-98119000D02*
X72347400Y-97340000D01*
X72387400Y-95660000D02*
X72387400Y-94914000D01*
X72387400Y-98086000D02*
X72387400Y-97340000D01*
X72427400Y-95660000D02*
X72427400Y-94948000D01*
X72427400Y-98052000D02*
X72427400Y-97340000D01*
X72467400Y-95660000D02*
X72467400Y-94984000D01*
X72467400Y-98016000D02*
X72467400Y-97340000D01*
X72507400Y-95660000D02*
X72507400Y-95022000D01*
X72507400Y-97978000D02*
X72507400Y-97340000D01*
X72547400Y-95660000D02*
X72547400Y-95062000D01*
X72547400Y-97938000D02*
X72547400Y-97340000D01*
X72587400Y-95660000D02*
X72587400Y-95104000D01*
X72587400Y-97896000D02*
X72587400Y-97340000D01*
X72627400Y-95660000D02*
X72627400Y-95149000D01*
X72627400Y-97851000D02*
X72627400Y-97340000D01*
X72667400Y-95660000D02*
X72667400Y-95197000D01*
X72667400Y-97803000D02*
X72667400Y-97340000D01*
X72707400Y-95660000D02*
X72707400Y-95247000D01*
X72707400Y-97753000D02*
X72707400Y-97340000D01*
X72747400Y-95660000D02*
X72747400Y-95301000D01*
X72747400Y-97699000D02*
X72747400Y-97340000D01*
X72787400Y-95660000D02*
X72787400Y-95358000D01*
X72787400Y-97642000D02*
X72787400Y-97340000D01*
X72827400Y-95660000D02*
X72827400Y-95420000D01*
X72827400Y-97580000D02*
X72827400Y-97340000D01*
X72867400Y-97513000D02*
X72867400Y-95487000D01*
X72907400Y-97440000D02*
X72907400Y-95560000D01*
X72947400Y-97359000D02*
X72947400Y-95641000D01*
X72987400Y-97268000D02*
X72987400Y-95732000D01*
X73027400Y-97163000D02*
X73027400Y-95837000D01*
X73067400Y-97037000D02*
X73067400Y-95963000D01*
X73107400Y-96870000D02*
X73107400Y-96130000D01*
X73147400Y-96500000D02*
G75*
G02*
X68907400Y-96500000I-2120000J0D01*
G01*
X68907400Y-96500000D02*
G75*
G02*
X73147400Y-96500000I2120000J0D01*
G01*
%TO.C,10[K\u03A9]*%
X75352064Y-111015000D02*
X74897936Y-111015000D01*
X75352064Y-112485000D02*
X74897936Y-112485000D01*
%TO.C,15[k\u03A9]*%
X80500000Y-74420000D02*
X80500000Y-77730000D01*
X80500000Y-87580000D02*
X80500000Y-84270000D01*
X81870000Y-84270000D02*
X79130000Y-84270000D01*
X79130000Y-77730000D01*
X81870000Y-77730000D01*
X81870000Y-84270000D01*
%TO.C,10[K\u03A9]*%
X76265000Y-134772936D02*
X76265000Y-135227064D01*
X77735000Y-134772936D02*
X77735000Y-135227064D01*
X98265000Y-115272936D02*
X98265000Y-115727064D01*
X99735000Y-115272936D02*
X99735000Y-115727064D01*
%TD*%
M02*
