M48
; DRILL file {KiCad 9.0.5} date 2025-10-16T02:52:23+0200
; FORMAT={-:-/ absolute / metric / decimal}
; #@! TF.CreationDate,2025-10-16T02:52:23+02:00
; #@! TF.GenerationSoftware,Kicad,Pcbnew,9.0.5
; #@! TF.FileFunction,Plated,1,2,PTH
FMAT,2
METRIC
; #@! TA.AperFunction,Plated,PTH,ViaDrill
T1C0.300
; #@! TA.AperFunction,Plated,PTH,ComponentDrill
T2C0.600
; #@! TA.AperFunction,Plated,PTH,ComponentDrill
T3C0.750
; #@! TA.AperFunction,Plated,PTH,ComponentDrill
T4C0.800
; #@! TA.AperFunction,Plated,PTH,ComponentDrill
T5C0.970
; #@! TA.AperFunction,Plated,PTH,ComponentDrill
T6C1.000
; #@! TA.AperFunction,Plated,PTH,ComponentDrill
T7C1.100
%
G90
G05
T1
X54.25Y-63.0
X54.5Y-55.5
X54.5Y-68.0
X54.75Y-57.75
X54.75Y-60.5
X58.0Y-55.5
X58.0Y-57.5
X58.0Y-60.5
X58.25Y-63.0
X58.25Y-68.0
X64.0Y-105.5
X68.75Y-127.5
X68.75Y-134.5
X83.0Y-100.0
X89.5Y-115.5
X119.25Y-99.25
X119.25Y-101.5
X131.5Y-120.5
X132.0Y-55.5
X132.5Y-113.0
T2
X70.027Y-96.5
X72.027Y-96.5
T3
X94.75Y-96.52
X96.02Y-95.25
X96.02Y-97.79
T4
X76.75Y-73.38
X76.75Y-88.62
X80.5Y-73.38
X80.5Y-88.62
X84.5Y-73.38
X84.5Y-88.62
T5
X125.462Y-101.373
X125.462Y-103.913
X125.462Y-106.453
X125.462Y-108.993
X125.462Y-111.533
X125.462Y-114.073
X125.462Y-116.613
X125.462Y-119.153
X125.462Y-121.693
X125.462Y-124.233
X125.462Y-126.773
X125.462Y-129.313
X125.462Y-131.853
X125.462Y-134.393
X125.462Y-136.933
X125.462Y-139.473
X125.462Y-142.013
X125.462Y-144.553
X125.462Y-147.093
X125.462Y-149.633
X128.002Y-101.373
X128.002Y-103.913
X128.002Y-106.453
X128.002Y-108.993
X128.002Y-111.533
X128.002Y-114.073
X128.002Y-116.613
X128.002Y-119.153
X128.002Y-121.693
X128.002Y-124.233
X128.002Y-126.773
X128.002Y-129.313
X128.002Y-131.853
X128.002Y-134.393
X128.002Y-136.933
X128.002Y-139.473
X128.002Y-142.013
X128.002Y-144.553
X128.002Y-147.093
X128.002Y-149.633
T6
X34.33Y-47.59
X34.33Y-50.13
X34.33Y-52.67
X34.33Y-55.21
X34.33Y-57.75
X34.33Y-60.29
X34.33Y-62.83
X34.33Y-65.37
X34.33Y-67.91
X34.33Y-70.45
X34.33Y-72.99
X34.33Y-75.53
X34.33Y-78.07
X34.33Y-80.61
X60.749Y-142.758
X60.749Y-145.298
X60.75Y-103.75
X60.75Y-106.29
X80.5Y-94.0
X84.505Y-94.021
T7
X40.032Y-114.257
X40.032Y-118.757
X46.532Y-114.257
X46.532Y-118.757
X50.622Y-103.82
X50.622Y-108.32
X50.627Y-124.695
X50.627Y-129.195
X57.122Y-103.82
X57.122Y-108.32
X57.127Y-124.695
X57.127Y-129.195
X61.255Y-114.262
X61.255Y-118.762
X65.25Y-142.01
X65.25Y-146.51
X67.755Y-114.262
X67.755Y-118.762
X71.75Y-142.01
X71.75Y-146.51
X78.5Y-142.0
X78.5Y-146.5
X85.0Y-142.0
X85.0Y-146.5
X93.123Y-121.195
X93.123Y-125.695
X99.623Y-121.195
X99.623Y-125.695
X103.752Y-114.255
X103.752Y-118.755
X110.252Y-114.255
X110.252Y-118.755
M30
